<?xml version="1.0" encoding="UTF-8" standalone="no"?>
<!-- Created with Inkscape (http://www.inkscape.org/) -->

<svg
   width="123.55452mm"
   height="120.70174mm"
   viewBox="0 0 123.55452 120.70174"
   version="1.1"
   id="svg312"
   xml:space="preserve"
   inkscape:version="1.2.1 (9c6d41e410, 2022-07-14)"
   sodipodi:docname="github.svg"
   xmlns:inkscape="http://www.inkscape.org/namespaces/inkscape"
   xmlns:sodipodi="http://sodipodi.sourceforge.net/DTD/sodipodi-0.dtd"
   xmlns="http://www.w3.org/2000/svg"
   xmlns:svg="http://www.w3.org/2000/svg"><sodipodi:namedview
     id="namedview314"
     pagecolor="#ffffff"
     bordercolor="#000000"
     borderopacity="0.25"
     inkscape:showpageshadow="2"
     inkscape:pageopacity="0.0"
     inkscape:pagecheckerboard="0"
     inkscape:deskcolor="#d1d1d1"
     inkscape:document-units="mm"
     showgrid="false"
     inkscape:zoom="0.72515432"
     inkscape:cx="117.90594"
     inkscape:cy="462.66014"
     inkscape:window-width="1920"
     inkscape:window-height="1001"
     inkscape:window-x="-9"
     inkscape:window-y="-9"
     inkscape:window-maximized="1"
     inkscape:current-layer="layer1" /><defs
     id="defs309" /><g
     inkscape:label="Layer 1"
     inkscape:groupmode="layer"
     id="layer1"
     transform="translate(-45.851733,-26.13515)"><path
       style="fill:#618774;stroke-width:0.241905;fill-opacity:1"
       d="m 88.28275,146.77959 c -1.175304,-0.22928 -6.205329,-2.32244 -9.037695,-3.76089 -14.857468,-7.54556 -26.593878,-21.8616 -31.185519,-38.04002 -1.591661,-5.608136 -2.202014,-10.322976 -2.207734,-17.054276 -0.0047,-5.52453 0.228663,-7.98715 1.211316,-12.78296 4.575324,-22.32975 21.90495,-40.7859 43.976274,-46.83498 12.613328,-3.45692 27.041698,-2.75645 38.924248,1.88971 14.47089,5.65822 26.11373,16.27135 33.07844,30.15295 3.18244,6.34302 5.1082,12.70233 6.07959,20.07623 0.3814,2.8952 0.37881,11.96141 -0.004,14.99809 -1.21012,9.592386 -4.38122,18.334876 -9.46205,26.086236 -7.3354,11.19095 -17.28489,19.35231 -29.40211,24.11795 -3.73866,1.4704 -5.0771,1.55682 -6.23214,0.40243 l -0.7831,-0.78267 -0.14657,-10.94197 c -0.15688,-11.71147 -0.21741,-12.32459 -1.50135,-15.20775 -0.31793,-0.71392 -1.0231,-1.85798 -1.56705,-2.54235 l -0.98901,-1.24432 1.98104,-0.27728 c 6.33291,-0.88638 11.2663,-2.6221 15.52298,-5.46146 5.17658,-3.45298 8.36626,-8.81175 9.93363,-16.688816 0.51577,-2.5921 0.73844,-9.86871 0.37336,-12.20085 -0.62243,-3.97609 -2.58956,-8.38485 -5.0552,-11.32978 l -0.97137,-1.1602 0.59465,-2.04792 c 1.05577,-3.63592 0.77431,-8.73461 -0.71077,-12.87576 -0.47126,-1.31413 -0.62311,-1.50447 -1.34966,-1.69177 -2.24792,-0.5795 -8.62744,1.75857 -14.15843,5.18899 -1.37782,0.85455 -2.11531,1.17102 -2.55183,1.09503 -0.33767,-0.0588 -1.71761,-0.33948 -3.06653,-0.62378 -7.71597,-1.6262 -16.16552,-1.6262 -23.881495,0 -1.348924,0.2843 -2.735355,0.56595 -3.080959,0.6259 -0.452969,0.0786 -1.107448,-0.19808 -2.344648,-0.99111 -4.932416,-3.1616 -11.916081,-5.71785 -14.483092,-5.30128 -0.779562,0.12651 -0.835416,0.20962 -1.412763,2.10246 -0.936261,3.06951 -1.173419,4.63873 -1.154877,7.6415 0.01376,2.22956 0.137528,3.18704 0.623318,4.82237 l 0.606141,2.04047 -0.931147,1.1043 c -2.443243,2.89756 -4.470769,7.43782 -5.091114,11.40058 -0.365604,2.33547 -0.142051,9.61361 0.374681,12.19834 1.239303,6.19908 3.643172,11.130466 6.9943,14.348386 2.518824,2.41869 6.580835,4.76617 10.553287,6.09883 1.72652,0.57921 6.344433,1.55843 8.51974,1.8066 l 1.38355,0.15785 -0.942059,1.19179 c -1.223803,1.54823 -2.10812,3.44263 -2.577706,5.52202 -0.367601,1.62779 -0.402515,1.6793 -1.384605,2.04303 -2.165739,0.8021 -3.298117,0.97981 -6.329397,0.99332 -3.105418,0.0138 -3.165244,0.004 -4.781891,-0.80749 -2.093577,-1.05054 -3.904067,-2.79752 -5.561429,-5.36632 -2.400656,-3.72086 -6.047669,-6.34229 -9.275311,-6.66699 -1.85695,-0.18681 -3.241369,0.21301 -3.241369,0.9361 0,0.55084 1.943611,2.51835 3.656087,3.70104 0.583581,0.40304 1.638151,1.49161 2.343489,2.41905 1.150336,1.51255 1.730024,2.57972 3.853012,7.09316 1.163852,2.47434 4.088696,4.75217 7.32265,5.7028 0.731762,0.2151 2.854477,0.51319 4.717143,0.66243 2.766941,0.22168 3.818264,0.20766 5.745239,-0.0766 l 2.358571,-0.34797 0.05961,4.24432 c 0.119837,8.53267 0.06666,8.9899 -1.137277,9.77875 -0.63664,0.41714 -1.931663,0.63256 -2.792807,0.46458 z"
       id="path445" /></g></svg>
