<?xml version="1.0" encoding="UTF-8" standalone="no"?>
<!-- Created with Inkscape (http://www.inkscape.org/) -->

<svg
   width="129.82228mm"
   height="129.8902mm"
   viewBox="0 0 129.82228 129.8902"
   version="1.1"
   id="svg5"
   xml:space="preserve"
   inkscape:version="1.2.1 (9c6d41e410, 2022-07-14)"
   sodipodi:docname="rainforest_alliance.svg"
   xmlns:inkscape="http://www.inkscape.org/namespaces/inkscape"
   xmlns:sodipodi="http://sodipodi.sourceforge.net/DTD/sodipodi-0.dtd"
   xmlns="http://www.w3.org/2000/svg"
   xmlns:svg="http://www.w3.org/2000/svg"><sodipodi:namedview
     id="namedview7"
     pagecolor="#ffffff"
     bordercolor="#000000"
     borderopacity="0.25"
     inkscape:showpageshadow="2"
     inkscape:pageopacity="0.0"
     inkscape:pagecheckerboard="0"
     inkscape:deskcolor="#d1d1d1"
     inkscape:document-units="mm"
     showgrid="false"
     inkscape:zoom="0.72515432"
     inkscape:cx="164.79251"
     inkscape:cy="430.94275"
     inkscape:window-width="1920"
     inkscape:window-height="1001"
     inkscape:window-x="-9"
     inkscape:window-y="-9"
     inkscape:window-maximized="1"
     inkscape:current-layer="layer1" /><defs
     id="defs2" /><g
     inkscape:label="Layer 1"
     inkscape:groupmode="layer"
     id="layer1"
     transform="translate(-33.602395,-34.696981)"><path
       style="fill:#e0e5e4;stroke-width:0.264583;fill-opacity:1"
       d="m 97.587467,164.27923 c -0.43656,-0.22525 -1.15093,-0.73952 -1.5875,-1.14283 -2.355233,-2.17581 -3.026243,-2.30725 -5.174937,-1.01366 -2.033157,1.22402 -3.048731,1.59969 -3.808868,1.4089 -0.362836,-0.0911 -1.277123,-0.90822 -2.031743,-1.81591 -0.754624,-0.90768 -1.561397,-1.79537 -1.792828,-1.97265 -0.657526,-0.50365 -1.923116,-0.39728 -3.83491,0.32232 -3.014599,1.13469 -3.436134,0.96797 -5.184836,-2.05067 -0.509323,-0.8792 -1.253292,-1.84239 -1.653263,-2.14042 -0.715356,-0.53303 -0.76541,-0.53455 -3.06801,-0.0931 -3.64181,0.69812 -3.712133,0.65079 -5.343157,-3.59624 -0.806855,-2.10097 -1.177161,-2.30426 -4.215797,-2.3144 -3.392305,-0.0113 -3.697366,-0.27468 -4.215916,-3.6395 -0.458913,-2.97783 -0.80728,-3.3262 -3.785115,-3.78511 -3.36482,-0.51856 -3.628171,-0.82361 -3.639495,-4.21592 -0.01014,-3.03864 -0.213435,-3.40894 -2.314408,-4.2158 -4.247027,-1.63102 -4.294359,-1.70134 -3.596233,-5.34315 0.441404,-2.3026 0.439884,-2.35266 -0.09315,-3.06801 -0.298028,-0.39998 -1.261216,-1.14394 -2.140418,-1.65327 -3.018637,-1.7487 -3.18536,-2.17023 -2.050668,-5.18483 0.719597,-1.9118 0.825967,-3.17739 0.322314,-3.83491 -0.177273,-0.23143 -1.064965,-1.03821 -1.972649,-1.79283 -0.907683,-0.75462 -1.724843,-1.66891 -1.815909,-2.03174 -0.190782,-0.76014 0.18488,-1.77571 1.408906,-3.80887 1.153591,-1.91616 1.113799,-2.57425 -0.257766,-4.26294 -2.00625,-2.47012 -2.138716,-2.68229 -2.138716,-3.425539 0,-0.74326 0.132466,-0.95542 2.138716,-3.42555 1.371565,-1.68869 1.411357,-2.34678 0.257766,-4.26294 -1.224026,-2.03315 -1.599688,-3.04873 -1.408906,-3.80886 0.09107,-0.36284 0.908226,-1.27713 1.815909,-2.03175 0.907684,-0.75462 1.795376,-1.56139 1.972649,-1.79282 0.503653,-0.65753 0.397283,-1.92312 -0.322314,-3.83491 -1.134692,-3.0146 -0.967969,-3.43614 2.050668,-5.18484 0.879202,-0.50932 1.841391,-1.25195 2.138199,-1.65029 0.53305,-0.71539 0.533972,-0.7544 0.07546,-3.18883 -0.673491,-3.57582 -0.671508,-3.57869 3.616141,-5.22531 2.100973,-0.80686 2.304265,-1.17716 2.314408,-4.2158 0.01132,-3.3923 0.274675,-3.69736 3.639495,-4.21591 2.977835,-0.45892 3.326202,-0.80728 3.785115,-3.78512 0.51855,-3.36482 0.823611,-3.62817 4.215916,-3.63949 3.038636,-0.0101 3.408942,-0.21344 4.215797,-2.31441 1.631024,-4.24703 1.701347,-4.29436 5.343157,-3.59623 2.3026,0.4414 2.352654,0.43988 3.06801,-0.0932 0.399971,-0.29803 1.14394,-1.26122 1.653263,-2.14042 1.748702,-3.01864 2.170237,-3.18536 5.184836,-2.05067 1.911794,0.7196 3.177384,0.82597 3.83491,0.32231 0.231431,-0.17727 1.038204,-1.06496 1.792828,-1.97265 0.75462,-0.90768 1.668907,-1.72484 2.031743,-1.8159 0.760137,-0.19079 1.775711,0.18488 3.808868,1.4089 1.91616,1.15359 2.574247,1.1138 4.262937,-0.25776 2.470121,-2.00625 2.682291,-2.13872 3.425541,-2.13872 0.743264,0 0.955434,0.13247 3.425553,2.13872 1.68869,1.37156 2.34678,1.41135 4.26294,0.25776 2.03315,-1.22402 3.04873,-1.59969 3.80886,-1.4089 0.36284,0.0911 1.27713,0.90822 2.03175,1.8159 0.75462,0.90769 1.56139,1.79538 1.79283,1.97265 0.65752,0.50366 1.92311,0.39729 3.83491,-0.32231 3.0146,-1.13469 3.43613,-0.96797 5.18483,2.05067 0.50933,0.8792 1.25196,1.84139 1.65029,2.1382 0.71539,0.53305 0.7544,0.53397 3.18883,0.0755 3.57582,-0.67349 3.57869,-0.67151 5.22531,3.61614 0.80686,2.10097 1.17716,2.30426 4.2158,2.31441 3.3923,0.0113 3.69736,0.27467 4.21592,3.63949 0.45891,2.97784 0.80728,3.3262 3.78511,3.78512 3.36482,0.51855 3.62817,0.82361 3.6395,4.21591 0.0101,3.03864 0.21343,3.40894 2.3144,4.2158 4.28765,1.64662 4.28964,1.64949 3.61614,5.22531 -0.45851,2.43443 -0.45759,2.47344 0.0755,3.18883 0.29681,0.39834 1.259,1.14097 2.1382,1.65029 3.01864,1.7487 3.18536,2.17024 2.05067,5.18483 -0.7196,1.9118 -0.82597,3.17739 -0.32232,3.83491 0.17728,0.23144 1.06497,1.03821 1.97265,1.79283 0.90769,0.75462 1.72485,1.66891 1.81591,2.03175 0.19078,0.76013 -0.18488,1.77571 -1.40891,3.80886 -1.15359,1.91616 -1.11379,2.57425 0.25777,4.26294 2.00625,2.47012 2.13872,2.68229 2.13872,3.42555 0,0.743249 -0.13247,0.955419 -2.13872,3.425539 -1.37156,1.68869 -1.41136,2.34678 -0.25777,4.26294 1.22403,2.03315 1.59969,3.04873 1.40891,3.80887 -0.0911,0.36283 -0.90822,1.27712 -1.81591,2.03174 -0.90768,0.75462 -1.79537,1.5614 -1.97265,1.79283 -0.50365,0.65752 -0.39728,1.92311 0.32232,3.83491 1.13469,3.0146 0.96797,3.43613 -2.05067,5.18483 -0.8792,0.50933 -1.84139,1.25196 -2.1382,1.65029 -0.53305,0.71539 -0.53397,0.7544 -0.0755,3.18883 0.6735,3.57582 0.67151,3.57869 -3.61614,5.22531 -2.10097,0.80686 -2.30426,1.17716 -2.3144,4.2158 -0.0113,3.39231 -0.27468,3.69736 -3.6395,4.21592 -2.97783,0.45891 -3.3262,0.80728 -3.78511,3.78511 -0.51856,3.36482 -0.82362,3.62817 -4.21592,3.6395 -3.03864,0.0101 -3.40894,0.21343 -4.2158,2.3144 -1.63102,4.24703 -1.70135,4.29436 -5.34315,3.59624 -2.3026,-0.44141 -2.35266,-0.43989 -3.06802,0.0931 -0.39997,0.29803 -1.14393,1.26122 -1.65326,2.14042 -1.7487,3.01864 -2.17023,3.18536 -5.18483,2.05067 -1.9118,-0.7196 -3.17739,-0.82597 -3.83491,-0.32232 -0.23144,0.17728 -1.03821,1.06497 -1.79283,1.97265 -0.75462,0.90769 -1.66891,1.72485 -2.03175,1.81591 -0.76013,0.19079 -1.77571,-0.18488 -3.80886,-1.4089 -1.91616,-1.1536 -2.57425,-1.1138 -4.26294,0.25776 -2.948089,2.39446 -3.187969,2.49913 -4.351593,1.89873 z m 10.980213,-7.47683 c 14.19523,-2.61914 26.47808,-9.95046 35.35037,-21.09974 6.16864,-7.75177 9.96167,-16.15243 11.81738,-26.17268 0.50923,-2.74967 0.58799,-4.07882 0.58799,-9.921869 0,-7.44796 -0.32681,-10.07584 -1.98803,-15.98577 -5.31257,-18.89992 -20.93619,-34.52354 -39.83611,-39.83611 -5.90993,-1.66122 -8.53781,-1.98803 -15.985773,-1.98803 -7.44795,0 -10.075831,0.32681 -15.985758,1.98803 -11.252211,3.16288 -21.851139,10.24609 -29.289384,19.57396 -6.440627,8.07681 -10.126189,16.29045 -12.050273,26.85521 -0.692703,3.80349 -0.692703,14.981919 0,18.785419 3.36851,18.49582 13.967205,33.17166 30.337919,42.00842 5.924762,3.19814 12.154364,5.1098 20.769793,6.37358 0.436562,0.064 3.591723,0.086 7.011467,0.0487 4.988099,-0.0543 6.819419,-0.17875 9.260409,-0.62913 z m -13.199853,-4.37872 c -0.781155,-0.83149 -0.797586,-2.09135 -0.0406,-3.11518 0.50089,-0.6775 0.55091,-0.91601 0.3052,-1.4553 -0.50797,-1.11486 -0.35922,-2.4309 0.35555,-3.14566 0.89746,-0.89746 2.967914,-0.92708 3.782754,-0.0541 1.124369,1.20458 0.951089,2.77902 -0.41783,3.79632 -0.39252,0.29169 -0.23277,0.90003 0.23634,0.90003 0.1379,0 0.509529,-0.29765 0.825849,-0.66145 0.69673,-0.80131 1.04134,-0.82732 1.67559,-0.12648 0.47271,0.52234 0.46468,0.55515 -0.34002,1.38906 l -0.82417,0.85408 0.77079,0.92604 c 0.42393,0.50933 0.77398,1.01534 0.7779,1.12448 0.0137,0.38287 -1.94063,0.19388 -2.41267,-0.23331 -0.441189,-0.39927 -0.526629,-0.39927 -1.135999,0 -1.018594,0.66741 -2.840654,0.56577 -3.558654,-0.19851 z m 2.8811,-1.4454 c 0,-0.3539 -0.94998,-1.1195 -1.14595,-0.92353 -0.0973,0.0973 -0.17697,0.39525 -0.17697,0.66204 0,0.34102 0.19644,0.48507 0.66146,0.48507 0.36381,0 0.66146,-0.10061 0.66146,-0.22358 z m 0.21495,-4.34432 c 0.105314,-0.54679 -0.65849,-0.91522 -1.06162,-0.5121 -0.40312,0.40312 -0.0347,1.16692 0.5121,1.06162 0.25343,-0.0488 0.50072,-0.29609 0.54952,-0.54952 z m 10.383903,4.38719 c -0.15345,-0.55545 -0.6797,-2.43867 -1.16943,-4.18492 -0.48973,-1.74625 -0.84014,-3.26429 -0.77868,-3.37344 0.30677,-0.54476 1.72814,-0.0628 3.78468,1.28334 2.56159,1.67673 2.7607,1.57902 2.00028,-0.98158 -0.22703,-0.76449 -0.41278,-1.47579 -0.41278,-1.58067 0,-0.21524 1.61814,-0.82916 1.77418,-0.67312 0.132,0.13201 2.45714,8.45838 2.38277,8.53276 -0.0313,0.0313 -0.35441,0.12907 -0.71791,0.21717 -0.51713,0.12533 -1.17491,-0.18359 -3.02354,-1.41995 -1.29945,-0.86906 -2.44258,-1.53071 -2.5403,-1.47031 -0.0977,0.0604 0.0619,1.00742 0.35461,2.1045 0.29275,1.09709 0.48338,2.03961 0.42363,2.09449 -0.0598,0.0549 -0.48886,0.18121 -0.95357,0.28072 -0.80453,0.17229 -0.85826,0.13265 -1.12394,-0.82899 z m -25.018643,-0.0301 c -1.309688,-0.37428 -2.426248,-0.71347 -2.481247,-0.75376 -0.134358,-0.0984 2.086367,-8.1113 2.315932,-8.35641 0.163042,-0.17408 5.448893,1.15492 5.736204,1.44223 0.09467,0.0947 -0.342477,1.72051 -0.534273,1.98707 -0.02432,0.0338 -0.857139,-0.17105 -1.850734,-0.45519 -1.937565,-0.55409 -2.259841,-0.51653 -2.259841,0.2634 0,0.38506 0.364594,0.60216 1.5875,0.94529 0.873125,0.24499 1.5875,0.4715 1.5875,0.50337 0,0.0319 -0.133252,0.44019 -0.296116,0.90739 -0.183274,0.52574 -0.429032,0.79843 -0.644909,0.71559 -1.013801,-0.38903 -2.542857,-0.69617 -2.769245,-0.55625 -0.142164,0.0879 -0.25848,0.37622 -0.25848,0.64081 0,0.37345 0.414261,0.5885 1.852084,0.96142 1.018646,0.26421 1.852083,0.55872 1.852083,0.65447 0,0.0958 -0.130709,0.54905 -0.290467,1.00733 -0.344123,0.98715 -0.411721,0.98893 -3.545991,0.0932 z m -7.672917,-2.87646 c -0.727604,-0.37477 -1.358128,-0.71202 -1.401165,-0.74944 -0.06618,-0.0575 3.204406,-7.28883 3.559519,-7.87011 0.09339,-0.15287 1.473714,0.37759 1.884601,0.72424 0.04081,0.0344 -0.465201,1.2248 -1.124479,2.64525 -0.659276,1.42045 -1.198685,2.73183 -1.198685,2.91418 0,0.18235 0.249341,0.4971 0.554091,0.69944 0.543594,0.36094 0.545171,0.38661 0.08329,1.35519 -0.258942,0.54301 -0.59758,0.98174 -0.752528,0.97497 -0.15495,-0.007 -0.877038,-0.31895 -1.604642,-0.69372 z m 43.16331,0.24302 c -0.0725,-0.25467 -0.34032,-2.34757 -0.59527,-4.65091 -0.50147,-4.53051 -0.51347,-4.46493 0.88458,-4.83767 0.47909,-0.12773 1.21334,0.39968 3.90261,2.80321 1.82186,1.62829 3.31248,3.07128 3.31248,3.20666 0,0.13537 -0.41411,0.4436 -0.92025,0.68496 -0.87295,0.41628 -0.94874,0.41306 -1.47439,-0.0627 -0.54553,-0.49369 -0.57336,-0.49133 -1.79172,0.1522 -1.03931,0.54894 -1.2392,0.77856 -1.24764,1.43311 -0.007,0.57442 -0.21619,0.90463 -0.79375,1.25538 -0.97468,0.59192 -1.11224,0.59361 -1.27665,0.0157 z m 2.62519,-4.41045 c 0.50313,-0.36791 0.50053,-0.38945 -0.12784,-1.05834 -0.84889,-0.9036 -1.07836,-0.86122 -1.07836,0.19917 0,1.28585 0.31542,1.51053 1.2062,0.85917 z m -54.578094,-0.8871 -0.58751,-0.45714 2.366868,-3.63802 c 1.301776,-2.00091 2.461252,-3.63802 2.576613,-3.63802 0.303548,0 2.196698,1.28541 3.031704,2.05848 0.393113,0.36394 0.7883,0.99659 0.878195,1.40588 0.193929,0.88295 -0.47701,2.45804 -1.289431,3.02709 -0.781881,0.54764 -2.2068,0.48099 -3.22951,-0.15108 l -0.871789,-0.5388 -0.825796,1.20026 c -0.905799,1.31653 -1.174181,1.41231 -2.049344,0.73135 z m 5.971056,-3.61769 c 0.09906,-0.51436 -0.57898,-1.20508 -1.182952,-1.20508 -0.585811,0 -0.722839,1.06189 -0.189696,1.47002 0.638522,0.48879 1.250228,0.37073 1.372648,-0.26494 z m 54.544588,0.97232 c -0.94589,-1.27033 -1.83771,-2.39393 -1.98182,-2.49689 -0.14411,-0.10296 -0.51792,-0.0195 -0.83069,0.1854 -0.49937,0.3272 -0.61396,0.31777 -0.9404,-0.0774 -1.10123,-1.33302 -1.14309,-1.21144 0.96285,-2.79649 1.08877,-0.81948 2.07264,-1.48789 2.18638,-1.48538 0.11374,0.002 0.478,0.38947 0.80946,0.85989 0.60204,0.85447 0.60211,0.85569 0.0661,1.21833 -0.29508,0.19965 -0.53651,0.48995 -0.53651,0.64512 0,0.15516 0.84521,1.39194 1.87825,2.7484 l 1.87825,2.46629 -0.62148,0.51781 c -0.34181,0.2848 -0.74054,0.51934 -0.88606,0.5212 -0.14552,0.002 -1.03849,-1.03597 -1.98437,-2.3063 z m -25.46615,-1.26623 c -0.10914,-0.11309 -0.19844,-0.54551 -0.19844,-0.96094 0,-0.89997 0.42703,-1.11986 2.96937,-1.52902 4.285,-0.68963 9.21372,-2.61269 13.4348,-5.24193 7.11847,-4.43397 12.93857,-11.86856 15.58023,-19.90219 1.33606,-4.06312 1.65072,-5.92138 1.80551,-10.66261 0.15728,-4.817229 -0.0523,-6.854089 -1.13099,-10.990659 -0.35438,-1.35904 -0.64433,-2.68392 -0.64433,-2.94417 0,-0.6936 0.68609,-1.15153 1.44128,-0.96199 0.53777,0.13497 0.74892,0.48213 1.18466,1.94777 2.30615,7.7569 2.24088,16.662189 -0.17486,23.854729 -2.15332,6.41124 -5.22972,11.44292 -9.80825,16.0421 -5.25808,5.2818 -11.25182,8.75412 -18.29994,10.6016 -2.68897,0.70485 -5.83197,1.0862 -6.15904,0.74731 z m -40.679692,-0.85578 c -2.718676,-1.48566 -3.093618,-5.03359 -0.766488,-7.25297 2.697449,-2.57255 7.072887,-1.03178 7.568767,2.66527 0.182835,1.36315 -0.685954,3.22165 -1.960441,4.19375 -1.238674,0.94478 -3.497519,1.12857 -4.841838,0.39395 z m 3.683865,-2.32788 c 0.647555,-0.54488 0.814052,-0.89182 0.814052,-1.69628 0,-0.80445 -0.166497,-1.15139 -0.814052,-1.69627 -0.447725,-0.37674 -1.093436,-0.68498 -1.434907,-0.68498 -0.341471,0 -0.987181,0.30824 -1.434907,0.68498 -1.663377,1.39964 -0.703024,4.03892 1.480751,4.06948 0.31626,0.004 0.941338,-0.3002 1.389063,-0.67693 z m 23.742725,2.23789 c -0.860044,-0.49997 -1.175232,-1.6856 -0.889294,-3.34525 0.464259,-2.69468 -0.60374,-5.42756 -2.919053,-7.46948 -2.090592,-1.84373 -4.209164,-2.68909 -10.179883,-4.06203 -2.404066,-0.55281 -3.11961,-1.05135 -3.11961,-2.17356 0,-0.77369 0.155276,-0.97545 1.239893,-1.61108 2.257073,-1.32274 11.926967,-3.90311 15.878601,-4.23714 1.974896,-0.16694 2.829476,-0.61641 2.25819,-1.18769 -0.204795,-0.2048 -0.948356,-0.14931 -2.621388,0.19561 -3.203319,0.6604 -9.631109,0.66821 -12.918838,0.0157 -4.532296,-0.89953 -7.161757,-2.08236 -8.290216,-3.72924 -1.6486,-2.40597 0.449638,-6.75025 5.892837,-12.200759 3.165311,-3.16956 4.936326,-4.68253 8.482796,-7.24683 11.834189,-8.55678 26.766787,-14.79141 37.200887,-15.53204 1.29488,-0.0919 2.35433,-0.25301 2.35433,-0.35799 0,-0.28326 -2.51936,-0.56546 -3.29967,-0.36962 -0.57711,0.14485 -0.64919,0.098 -0.49673,-0.32302 0.64855,-1.79086 2.34006,-3.00599 4.18451,-3.00599 2.23649,0 3.67614,1.07009 4.43783,3.29861 0.29491,0.86283 0.54719,1.06517 2.18356,1.75128 2.30775,0.96761 4.10026,2.17632 4.84989,3.27034 1.41758,2.06882 0.36822,3.51463 -5.64169,7.77311 -2.50009,1.77151 -8.27317,4.74812 -10.8663,5.60271 -2.07004,0.68219 -3.12449,1.61592 -4.57335,4.04981 -1.99716,3.354929 -2.9328,6.836449 -2.03704,7.579859 1.03945,0.86267 4.87886,0.0796 6.80209,-1.38727 1.27007,-0.96871 2.36222,-2.44442 2.86316,-3.868679 0.86519,-2.45989 3.09703,-2.93726 3.96261,-0.84756 0.45954,1.10943 -0.0826,2.107769 -1.57661,2.903429 -2.63152,1.40142 -3.17351,1.85582 -3.17351,2.66057 0,0.59649 0.16029,0.81999 0.73072,1.01884 1.2077,0.42101 4.28579,-0.12283 6.50702,-1.14967 1.04147,-0.48146 1.43063,-0.54295 2.0561,-0.32491 1.35212,0.47135 1.7541,2.26063 0.75001,3.33839 -0.632,0.67838 -1.42388,0.72045 -3.42927,0.18219 -0.80037,-0.21483 -2.23239,-0.39201 -3.18227,-0.39374 -2.15646,-0.004 -2.97026,0.46747 -2.85187,1.65192 0.0977,0.97783 1.28834,1.69358 3.36261,2.02147 1.74462,0.27579 2.40695,0.87184 2.40695,2.16611 0,1.12896 -0.92647,2.09486 -2.00935,2.09486 -0.55749,0 -1.9594,-1.17463 -1.9594,-1.64174 0,-0.10556 -0.37664,-0.6209 -0.83698,-1.14519 -1.93743,-2.20661 -7.18912,-3.82646 -12.40845,-3.82729 -3.62251,-5.3e-4 -3.85947,-0.48817 -3.0114,-6.19662 0.42542,-2.863579 0.42989,-5.352889 0.009,-5.260179 -0.13205,0.0291 -0.49934,0.86256 -0.8162,1.85209 -1.17995,3.684849 -3.51069,7.117009 -5.789489,8.525379 l -0.861274,0.53229 -2.11,-1.052 c -2.843913,-1.41792 -6.633479,-2.34038 -10.461876,-2.54665 -3.164282,-0.17048 -4.599464,0.0127 -3.533574,0.45096 0.291042,0.11968 1.079447,0.22596 1.752013,0.23619 1.620023,0.0246 5.738315,1.08496 8.209275,2.11363 2.070457,0.86193 5.701212,3.01499 6.839752,4.05601 2.188403,2.00096 2.692303,3.62913 1.566233,5.06069 -1.117489,1.42066 -7.651777,3.9603 -13.331614,5.18151 -1.450491,0.31187 -2.675139,0.60491 -2.721441,0.65121 -0.170691,0.17069 1.772664,0.95453 3.400473,1.37156 1.129244,0.28929 2.371431,0.39307 3.802092,0.31763 1.803622,-0.0951 2.491882,-0.28119 4.552257,-1.23083 2.68598,-1.23797 3.419914,-1.25616 4.323693,-0.10719 0.71723,0.91181 0.65925,1.98337 -0.159999,2.95699 -0.78416,0.93192 -1.549324,1.02913 -3.283774,0.41717 -0.61868,-0.21828 -1.757988,-0.39687 -2.531804,-0.39687 -1.132772,0 -1.483368,0.10911 -1.79913,0.55993 -0.306747,0.43794 -0.328263,0.70023 -0.09875,1.20395 0.429604,0.94288 3.914924,3.16467 5.950894,3.79352 0.969374,0.2994 1.969413,0.73163 2.222313,0.9605 1.1553,1.04554 0.69659,3.16723 -0.820629,3.79568 -1.215394,0.50344 -2.069294,-7.9e-4 -3.443564,-2.03379 -1.335975,-1.97625 -4.297573,-4.57562 -5.213249,-4.57562 -0.346958,0 -0.782486,0.27259 -1.023688,0.64071 -0.590505,0.90122 -0.110543,2.36121 1.369295,4.16524 0.95526,1.16453 1.154983,1.59946 1.154983,2.51516 0,0.88093 -0.142441,1.21919 -0.69714,1.65552 -0.757214,0.59562 -1.798235,0.69664 -2.567937,0.2492 z M 121.2804,85.518141 c 1.26408,-0.85186 1.94293,-2.14798 1.92003,-3.66589 -0.0634,-4.20346 -5.34497,-5.59306 -7.43283,-1.9556 -2.04354,3.56021 2.18026,7.86729 5.5128,5.62149 z m -2.29122,-1.13154 c -0.96258,-1.46907 -0.95934,-4.40821 0.006,-5.37347 0.64281,-0.6428 1.75371,-0.12116 2.16331,1.01581 0.48091,1.33493 0.46042,3.72743 -0.038,4.43904 -0.55992,0.79941 -1.57961,0.76047 -2.13121,-0.0814 z m 14.92746,52.845199 c -0.97088,-0.44689 -5.24062,-4.32523 -5.24062,-4.76023 0,-0.12511 0.29784,-0.50728 0.66188,-0.84928 l 0.66188,-0.6218 2.21621,2.16318 c 1.21891,1.18975 2.29811,2.16319 2.39822,2.16319 0.48331,0 1.20556,-0.59669 1.20556,-0.99597 0,-0.24651 -0.9796,-1.4329 -2.17689,-2.63644 l -2.17689,-2.18825 0.71487,-0.71486 0.71486,-0.71487 1.94063,1.83926 c 3.20132,3.03407 3.86382,4.36098 2.94546,5.89947 -0.9264,1.55196 -2.39873,2.09158 -3.86517,1.4166 z M 81.43389,135.8957 C 66.192138,128.51168 57.389933,113.38024 58.599483,96.642181 c 1.252913,-17.3381 13.325462,-31.72271 30.124445,-35.89367 4.803593,-1.19267 6.883259,-1.18498 6.875119,0.0255 -0.007,1.01626 -0.33826,1.22987 -2.385817,1.53771 -15.926245,2.39445 -28.275122,14.053 -31.657835,29.88811 -0.68234,3.19415 -0.68234,11.622509 0,14.816659 2.108258,9.86914 7.871566,18.48452 15.963151,23.86277 0.943615,0.6272 2.987649,1.7952 4.542293,2.59557 2.292255,1.1801 2.843887,1.57745 2.917904,2.10184 0.08957,0.6346 -0.513852,1.33774 -1.148027,1.33774 -0.161785,0 -1.240356,-0.45839 -2.396826,-1.01866 z m -25.999501,-4.61209 c -0.834503,-1.00552 -2.95035,-4.48694 -2.837715,-4.66919 0.158664,-0.25672 6.893521,-4.78131 7.11699,-4.78131 0.08637,0 0.891805,1.09276 1.789862,2.42837 l 1.632833,2.42836 -0.766111,0.61303 c -0.421362,0.33716 -0.856888,0.61362 -0.967836,0.61434 -0.110947,7.9e-4 -0.615582,-0.64565 -1.121404,-1.43638 -1.083657,-1.69403 -1.382186,-1.92403 -1.866305,-1.43788 -0.304469,0.30574 -0.238809,0.55733 0.422264,1.61802 0.949193,1.52298 0.954458,1.61338 0.125569,2.15649 -0.650897,0.42649 -0.665542,0.41791 -1.521354,-0.89086 -0.899231,-1.37517 -1.258509,-1.57473 -1.75594,-0.97536 -0.22714,0.27368 -0.04487,0.71291 0.79105,1.90622 l 1.086197,1.5506 -0.757302,0.606 c -0.87905,0.70343 -0.992237,0.72568 -1.370798,0.26955 z m 82.442681,-2.41432 c -1.99718,-1.32329 -3.63429,-2.49368 -3.63802,-2.60088 -0.004,-0.1072 0.32064,-0.66158 0.72082,-1.23196 0.83095,-1.18434 1.85115,-1.88087 2.7528,-1.87944 0.83437,0.001 2.25333,0.89526 2.46132,1.5506 0.11998,0.37802 0.77094,0.73051 2.27259,1.23061 1.15744,0.38546 2.10384,0.78036 2.10312,0.87755 -7.9e-4,0.0972 -0.26861,0.49979 -0.59531,0.89466 l -0.594,0.71795 -1.44505,-0.51951 c -2.3419,-0.84194 -2.50443,-0.56532 -0.5038,0.85746 l 1.22616,0.87199 -0.5647,0.81847 -0.56469,0.81847 z m 0.67184,-2.63832 c 0.17656,-0.46012 -0.30689,-0.95828 -0.92998,-0.95828 -0.54719,0 -0.66608,0.93764 -0.14552,1.14769 0.59611,0.24053 0.9333,0.18115 1.0755,-0.18941 z m 3.62086,-4.16602 c -1.96454,-0.88258 -3.68026,-1.70779 -3.81273,-1.8338 -0.18346,-0.17453 1.64938,-4.97297 2.09743,-5.49115 0.0929,-0.10742 1.97988,0.68266 1.97988,0.82897 0,0.0621 -0.29766,0.78593 -0.66146,1.60855 -0.77825,1.75977 -0.81496,2.15882 -0.21959,2.38728 0.49733,0.19085 0.67436,-0.0262 1.34027,-1.64371 0.41263,-1.00227 0.5436,-1.11527 1.12828,-0.97346 1.0612,0.25737 1.14058,0.5222 0.55398,1.8483 -0.69501,1.57118 -0.6967,1.97884 -0.008,1.97884 0.41548,0 0.73238,-0.41158 1.32754,-1.72419 l 0.78179,-1.72419 0.85527,0.43492 c 0.47039,0.23921 0.90148,0.47592 0.95796,0.52603 0.19481,0.1728 -2.20659,5.39783 -2.47725,5.39007 -0.1492,-0.004 -1.87861,-0.72989 -3.84314,-1.61246 z M 53.179272,120.7762 c -0.366683,-0.43578 -0.744057,-1.03606 -0.838609,-1.33397 -0.184537,-0.58143 -0.619944,-0.54388 -2.034326,0.17544 -0.392955,0.19984 -0.824995,0.36335 -0.960088,0.36335 -0.368891,0 -0.955683,-1.58088 -0.678747,-1.82862 0.294423,-0.26339 7.824442,-3.51374 7.894818,-3.40782 0.461064,0.69391 1.46784,3.62959 1.461526,4.26169 -0.0146,1.46133 -1.333535,2.56225 -3.069645,2.56225 -0.906117,0 -1.229824,-0.1445 -1.774929,-0.79232 z m 2.623133,-1.67559 c 0.162087,-0.42239 -0.312192,-1.76542 -0.623443,-1.76542 -0.121309,0 -0.445063,0.16416 -0.719453,0.3648 -0.475563,0.34774 -0.477642,0.39723 -0.04447,1.05833 0.488191,0.74507 1.168405,0.91289 1.387366,0.34229 z m -6.868982,-7.91698 c -1.576975,-1.41881 -0.533537,-4.16719 1.582094,-4.16719 1.175983,0 2.201054,0.92748 2.398928,2.17054 0.134776,0.84667 0.04639,1.08951 -0.650038,1.78594 -1.010046,1.01004 -2.348436,1.09471 -3.330984,0.21071 z m 95.704507,-0.0381 c -1.60698,-1.38226 -0.54998,-4.13807 1.58149,-4.12324 1.49997,0.0104 2.74108,1.50023 2.42994,2.91683 -0.38035,1.73169 -2.61829,2.40474 -4.01143,1.20641 z M 45.114417,100.10538 c 0.09396,-1.662909 0.192342,-1.957859 0.838362,-2.513549 0.803137,-0.69083 2.435141,-0.85365 3.396954,-0.3389 0.517087,0.27674 1.09375,0.17863 4.250757,-0.72321 0.386241,-0.11034 0.463021,0.0445 0.463021,0.93369 0,1.15205 0.109817,1.0807 -2.711979,1.76184 -1.232675,0.29755 -0.808914,0.61832 0.926041,0.70096 l 1.653646,0.0788 0.08212,0.99219 0.08212,0.99218 h -4.543745 -4.543746 z m 3.540827,-0.258079 c 0.254437,-0.41169 -0.553885,-1.13686 -1.053509,-0.94514 -0.229565,0.0881 -0.417391,0.40203 -0.417391,0.69764 0,0.39345 0.173063,0.537469 0.645843,0.537469 0.355214,0 0.72649,-0.13048 0.825057,-0.289969 z m 94.308276,-0.84486 v -3.01735 l 4.24467,-0.18147 c 2.33458,-0.0998 4.35864,-0.11104 4.49792,-0.0249 0.13928,0.0861 0.25324,1.45916 0.25324,3.0513 v 2.894799 h -1.05833 -1.05834 l -0.004,-1.65364 c -0.005,-1.867679 -0.23329,-2.411599 -0.95369,-2.268039 -0.42032,0.0838 -0.49746,0.34425 -0.49746,1.67968 0,1.574269 -0.003,1.580859 -0.82107,1.660559 -0.81871,0.0798 -0.82175,0.0752 -1.05833,-1.587499 -0.20092,-1.41204 -0.31835,-1.66752 -0.76644,-1.66752 -0.48213,0 -0.52917,0.17639 -0.52917,1.98438 v 1.984369 l -1.12447,0.0814 -1.12448,0.0814 z m -93.133343,-6.39347 c -3.597313,-2.31555 -3.831144,-2.51659 -3.751202,-3.22528 0.04689,-0.41568 0.24526,-0.88068 0.440821,-1.03331 0.390801,-0.30502 8.864917,-1.79677 9.065783,-1.5959 0.06865,0.0686 0.01816,0.57778 -0.112193,1.13141 -0.17253,0.73275 -0.391317,1.02891 -0.804227,1.08862 -0.79126,0.11443 -1.057024,0.52181 -1.268863,1.94499 -0.161491,1.08493 -0.116733,1.26904 0.372114,1.53066 0.310253,0.16605 0.554089,0.55622 0.552071,0.8834 -0.0048,0.78407 -0.282267,1.78046 -0.490266,1.76077 -0.09217,-0.009 -1.893985,-1.12714 -4.004038,-2.48536 z m 1.719792,-2.54791 c 0,-0.35168 -0.148828,-0.62751 -0.330729,-0.61295 -0.181901,0.0146 -0.568854,0.0443 -0.859896,0.0661 -0.711897,0.0534 -0.671733,0.68406 0.06615,1.03864 0.818831,0.39349 1.124479,0.2598 1.124479,-0.49184 z m 92.576721,3.34803 c -1.25928,-0.54818 -2.04449,-1.85151 -2.17125,-3.60396 -0.21015,-2.90535 1.55068,-4.74911 4.53554,-4.74911 2.92991,0 4.57185,1.81724 4.35468,4.81958 -0.0901,1.24521 -0.2534,1.69486 -0.82227,2.26373 l -0.70987,0.70988 -0.70365,-0.70365 c -0.67765,-0.67765 -0.68743,-0.7284 -0.26458,-1.37374 1.07159,-1.63547 2.6e-4,-3.57347 -1.98482,-3.59072 -2.13652,-0.0186 -3.07341,2.77303 -1.38619,4.13031 0.61086,0.4914 0.68081,0.69388 0.52557,1.52135 -0.20007,1.06647 -0.22406,1.07654 -1.37316,0.57633 z m -67.660781,-1.28099 c -0.319868,-2.27107 -1.006734,-3.90949 -2.43473,-5.8077 -1.715685,-2.28063 -1.881873,-3.29488 -0.735875,-4.49105 1.164249,-1.21521 2.86929,-0.93791 3.662312,0.59562 0.342405,0.66215 0.361757,1.05888 0.117375,2.40656 -0.322228,1.77698 -0.151316,3.46641 0.44586,4.40723 0.296862,0.46769 0.585451,0.59171 1.231344,0.52917 0.704226,-0.0682 0.94066,-0.27842 1.431002,-1.27232 0.752943,-1.52619 1.357574,-3.91739 1.650098,-6.52582 0.195725,-1.74528 0.338515,-2.15419 0.929854,-2.66284 1.569402,-1.34994 3.817416,-0.28161 3.835699,1.82285 0.0069,0.79799 -0.271306,1.31057 -1.579838,2.91042 -0.873538,1.06801 -1.995813,2.71638 -2.493946,3.66304 -0.610016,1.15928 -1.2792,1.98867 -2.04977,2.54048 -0.62924,0.45061 -1.753309,1.3107 -2.497931,1.91131 l -1.353857,1.09201 z m -24.379183,-9.0869 c -2.033116,-0.79952 -3.736732,-1.49383 -3.785812,-1.54291 -0.234791,-0.23479 0.767082,-2.04221 1.064801,-1.92094 0.182694,0.0744 1.939515,0.75807 3.904046,1.51923 1.964531,0.76116 3.662734,1.46492 3.773785,1.56391 0.344501,0.30708 -0.349708,1.86769 -0.823105,1.85037 -0.240426,-0.009 -2.100598,-0.67014 -4.133715,-1.46966 z m 88.183654,0.82603 c -0.25483,-0.55928 -0.13758,-1.01596 0.81807,-3.18645 0.61354,-1.39348 1.07806,-2.6458 1.03227,-2.78293 -0.0458,-0.13713 -0.83808,0.10767 -1.76065,0.544 -0.92257,0.43634 -1.8192,0.79334 -1.99251,0.79334 -0.47719,0 -0.98402,-1.50926 -0.60275,-1.7949 0.44752,-0.33528 7.62084,-3.54646 7.70288,-3.44824 0.46136,0.55228 0.64653,1.32579 0.41446,1.73132 -0.30931,0.5405 -2.12488,4.58665 -2.12488,4.73547 0,0.26776 0.81802,0.0248 2.33886,-0.69469 0.92257,-0.43645 1.71701,-0.79354 1.76542,-0.79354 0.13095,0 0.72618,1.87719 0.61844,1.95041 -0.0509,0.0346 -0.92595,0.43774 -1.9446,0.8959 -1.01864,0.45816 -2.77807,1.2538 -3.90982,1.76809 l -2.05774,0.93506 z m -46.519368,-2.70223 c -0.73497,-0.26867 -1.587511,-1.22408 -1.586108,-1.77749 0.0016,-0.67459 0.424762,-1.31845 2.727923,-4.15171 2.0856,-2.56563 3.987884,-6.26762 4.402864,-8.56832 0.23526,-1.30432 0.20586,-1.93028 -0.16479,-3.50907 -0.44176,-1.88165 -0.43994,-1.93662 0.0873,-2.64583 0.71122,-0.95663 2.199429,-1.1274 2.984369,-0.34246 0.78511,0.78511 0.6875,1.99444 -0.28306,3.50693 -0.97502,1.51945 -1.29441,3.36333 -0.67204,3.87985 0.22495,0.18669 0.73944,0.30107 1.14331,0.25418 0.92114,-0.10696 2.95615,-2.55564 4.0549,-4.87918 0.42106,-0.8904 0.96142,-1.69407 1.20082,-1.78594 0.96957,-0.37206 1.94281,-0.16481 2.48944,0.53012 1.08528,1.37972 0.52208,2.62841 -1.64876,3.65551 -1.60621,0.75995 -4.35446,3.12013 -4.70415,4.03989 -0.1576,0.4145 -0.14073,0.82819 0.0482,1.18112 0.37751,0.70537 1.65804,0.55847 3.8992,-0.44731 1.97281,-0.88534 2.78808,-0.76085 3.39835,0.51892 0.35582,0.74614 0.37409,1.03328 0.10682,1.67852 -0.53343,1.28781 -1.34837,1.47641 -3.54842,0.8212 -3.2664,-0.97277 -5.97573,-0.28301 -8.399799,2.13849 -1.301094,1.29971 -1.708324,2.20369 -1.187474,2.63596 0.17903,0.14858 0.941294,0.36132 1.693914,0.47275 l 1.368399,0.2026 -3.248593,1.38906 c -3.301363,1.41163 -3.462446,1.45816 -4.162605,1.20221 z m -39.489064,-3.32169 c -2.000911,-1.18878 -3.638021,-2.2549 -3.638021,-2.36915 0,-0.64525 1.139326,-1.2058 3.065572,-1.50825 2.753141,-0.43228 3.284429,-0.56584 3.284429,-0.82566 0,-0.11921 -0.744141,-0.66197 -1.653646,-1.20613 -0.909505,-0.54416 -1.692191,-1.01797 -1.739301,-1.0529 -0.123537,-0.0916 0.732815,-1.7002 0.905122,-1.7002 0.412185,0 7.513657,4.35473 7.506494,4.60309 -0.02273,0.78765 -0.781552,1.15588 -3.298878,1.60082 -1.455208,0.25721 -2.746547,0.5615 -2.869643,0.6762 -0.123095,0.11471 0.531749,0.64985 1.455209,1.18922 0.92346,0.53936 1.724809,1.02419 1.780776,1.07739 0.200854,0.19093 -0.569274,1.70094 -0.861462,1.6891 -0.164246,-0.007 -1.935739,-0.98474 -3.936651,-2.17353 z m 81.396802,-2.91622 c -0.50483,-0.77999 -0.52067,-0.91801 -0.16657,-1.45132 0.391,-0.58888 0.24624,-0.91878 -1.1824,-2.69455 -0.0529,-0.0658 -0.48477,-0.0934 -0.95967,-0.0614 -0.69387,0.0467 -0.98242,-0.10276 -1.46916,-0.7611 -0.33313,-0.45059 -0.56545,-0.85754 -0.51625,-0.90433 0.32214,-0.30639 8.72975,-2.55991 9.06737,-2.43035 0.23065,0.0885 0.55022,0.44813 0.71015,0.79916 0.2594,0.5693 0.0377,1.0551 -2.0528,4.49809 -1.28899,2.12292 -2.46267,3.86165 -2.6082,3.86383 -0.14552,0.002 -0.51563,-0.38391 -0.82247,-0.85799 z m 2.09255,-4.66952 c 0.54632,-0.92485 0.27837,-1.17376 -0.84281,-0.78291 -0.93921,0.32741 -0.93802,0.32494 -0.49591,1.03287 0.45235,0.72433 0.80173,0.65909 1.33872,-0.24996 z m -77.205497,-1.49622 c -1.74625,-1.53753 -3.175,-2.89921 -3.175,-3.02597 0,-0.35936 2.347171,-3.14169 2.662478,-3.1561 0.154675,-0.007 0.602419,0.32241 0.994984,0.73216 l 0.713756,0.745 -0.664255,0.62404 c -0.365339,0.34322 -0.664255,0.78561 -0.664255,0.98309 0,0.68287 0.770094,0.66393 1.380297,-0.034 l 0.604078,-0.69087 0.774443,0.62545 0.774441,0.62546 -0.618993,0.86929 -0.618992,0.8693 1.229976,1.0894 1.229974,1.08942 -0.645128,0.7276 c -0.354822,0.40018 -0.680606,0.72638 -0.723966,0.72489 -0.04336,-0.002 -1.507588,-1.26069 -3.253838,-2.79821 z m 68.405167,-1.55366 -0.61103,-0.65041 1.33842,-1.5324 c 0.73612,-0.84282 2.12179,-2.30323 3.07927,-3.24536 l 1.74086,-1.71296 0.69064,0.69065 c 0.48186,0.48185 0.62159,0.80928 0.4622,1.08309 -0.39835,0.68433 -5.57008,6.01781 -5.8353,6.01781 -0.13971,0 -0.52899,-0.29269 -0.86506,-0.65042 z m -60.996834,-1.99854 c -2.514491,-0.53718 -4.160777,-2.92291 -3.752612,-5.43814 0.431713,-2.66033 3.859377,-4.40229 6.240018,-3.17121 1.005348,0.51988 2.364508,2.11123 2.557952,2.99493 0.08702,0.39751 0.200658,0.8627 0.252529,1.03374 0.174088,0.57404 -0.417218,2.17873 -1.103259,2.99405 -1.106475,1.31497 -2.680076,1.91019 -4.194628,1.58663 z m 2.301939,-2.91957 c 0.689112,-0.68911 0.783743,-0.94332 0.652415,-1.75261 -0.08449,-0.52062 -0.349639,-1.16319 -0.58923,-1.42793 -1.057418,-1.16844 -3.180244,-0.73374 -3.807084,0.77958 -0.395791,0.95553 -0.17194,1.76227 0.717785,2.58684 0.943047,0.87398 2.033215,0.80702 3.026114,-0.18588 z m 54.768205,1.57295 c -0.95178,-0.73041 -1.32671,-1.17562 -1.16615,-1.38474 0.13015,-0.16953 1.27998,-1.70795 2.55519,-3.41873 1.2752,-1.71077 2.40222,-3.1622 2.50447,-3.2254 0.10225,-0.0632 0.53266,0.1616 0.95647,0.49953 0.58402,0.46568 0.70312,0.70206 0.49197,0.97644 -2.79941,3.6377 -3.35659,4.54088 -3.05738,4.95598 0.60783,0.84325 0.60972,1.0669 0.0158,1.87018 -0.33014,0.44654 -0.66717,0.80995 -0.74894,0.80758 -0.0818,-0.002 -0.77993,-0.48875 -1.55146,-1.08084 z m -4.88385,-3.12018 c -0.69275,-0.40651 -1.324,-0.80355 -1.40278,-0.88233 -0.0788,-0.0788 0.82883,-1.88823 2.0169,-4.02101 2.07996,-3.73386 2.18112,-3.86439 2.72569,-3.517 0.31106,0.19843 0.71874,0.45119 0.90596,0.56169 0.25587,0.15103 0.0313,0.77037 -0.90458,2.49443 -0.68473,1.26143 -1.36737,2.49357 -1.51698,2.73807 -0.21149,0.34563 -0.13746,0.55352 0.33264,0.93419 0.59814,0.48434 0.5996,0.50024 0.13541,1.47367 -0.2581,0.54122 -0.59604,0.97805 -0.75099,0.97072 -0.15495,-0.007 -0.84852,-0.34593 -1.54127,-0.75243 z m -45.394916,-4.14804 c -1.054248,-2.13698 -1.882497,-3.91452 -1.840555,-3.95008 0.273912,-0.23225 2.028163,-1.02922 2.671741,-1.21379 1.668579,-0.47854 3.357645,1.03808 3.357645,3.01486 0,0.38321 0.510781,1.18398 1.313368,2.05902 0.722349,0.78755 1.317662,1.51815 1.322916,1.62355 0.0052,0.10541 -0.373644,0.3898 -0.841994,0.632 l -0.851543,0.44035 -1.209159,-1.37147 c -0.665041,-0.7543 -1.286478,-1.29414 -1.380977,-1.19964 -0.0945,0.0945 0.14292,0.81354 0.527595,1.59789 0.744453,1.5179 0.67945,1.80095 -0.479237,2.08673 -0.641961,0.15834 -0.761349,-0.0131 -2.5898,-3.71942 z m 2.157976,-2.07195 c 0.215731,-0.56218 -0.418846,-1.27499 -0.952687,-1.07014 -0.531636,0.20401 -0.589442,0.6729 -0.138542,1.1238 0.425472,0.42547 0.916639,0.40132 1.091229,-0.0537 z m 38.87409,3.94545 c -0.65374,-0.28414 -0.8599,-0.53863 -0.8599,-1.06147 0,-0.53468 -0.2042,-0.77306 -0.91754,-1.07111 -1.18741,-0.49613 -1.7081,-0.48366 -2.3035,0.0552 -0.41573,0.37624 -0.63482,0.39352 -1.54218,0.12167 -0.58169,-0.17428 -1.05761,-0.37153 -1.05761,-0.43835 0,-0.0668 1.38555,-1.73538 3.07899,-3.70792 2.29486,-2.67308 3.18768,-3.54146 3.50573,-3.40976 0.23471,0.0972 0.6351,0.2366 0.88976,0.30982 0.38089,0.10952 0.46323,0.44445 0.46422,1.88821 5.3e-4,0.9653 0.0784,3.09454 0.17272,4.73165 0.1893,3.28516 0.18883,3.28601 -1.43069,2.5821 z m -0.64549,-4.83106 c -0.0948,-1.14547 -0.39725,-1.20237 -1.13547,-0.21361 -0.45187,0.60524 -0.47012,0.73627 -0.13229,0.94989 0.21554,0.13629 0.60744,0.24963 0.87089,0.25186 0.39226,0.003 0.46412,-0.17561 0.39687,-0.98814 z m -31.56655,3.55794 c -0.410969,-1.25181 -2.259187,-8.19944 -2.196343,-8.25626 0.04328,-0.0391 1.328846,-0.42497 2.856815,-0.85743 2.974334,-0.84181 3.065722,-0.82514 3.222119,0.58792 0.08193,0.74021 0.01709,0.78924 -1.700765,1.28615 -1.350759,0.39072 -1.785938,0.63247 -1.785938,0.99212 0,0.72022 0.309108,0.78149 1.868041,0.37025 1.54319,-0.40709 1.711674,-0.3485 1.96633,0.68381 0.158496,0.64249 0.08006,0.70395 -1.436486,1.12559 -1.067512,0.29679 -1.604135,0.58116 -1.604135,0.85006 0,0.66405 0.72062,0.74229 2.426976,0.26351 1.648973,-0.46268 2.05487,-0.35166 2.06689,0.56533 0.0021,0.17 0.07068,0.48273 0.152123,0.69496 0.09578,0.24959 -0.06775,0.44326 -0.463021,0.54838 -0.336101,0.0894 -1.659033,0.45499 -2.939847,0.81246 -1.694246,0.47286 -2.357091,0.56364 -2.432759,0.33315 z m 9.21058,-2.03843 c -0.627636,-0.25288 -0.971706,-0.78356 -1.242507,-1.91638 -0.165629,-0.69287 -0.127714,-0.72761 0.794128,-0.72761 0.614627,0 1.09355,0.16905 1.311786,0.46302 0.319828,0.43083 0.374621,0.4326 0.78808,0.0254 0.59849,-0.58944 0.345429,-0.89727 -1.020329,-1.24118 -1.461113,-0.36791 -2.071404,-1.05147 -2.212054,-2.47764 -0.151347,-1.53462 0.342596,-2.37406 1.66823,-2.83509 0.907193,-0.31551 1.220904,-0.32021 1.924248,-0.0289 0.811095,0.33596 1.609145,1.43286 1.609145,2.21171 0,0.55761 -1.632785,0.82556 -1.918591,0.31485 -0.123404,-0.22051 -0.464862,-0.40093 -0.758793,-0.40093 -0.402878,0 -0.513612,0.14653 -0.449874,0.59531 0.06803,0.47899 0.299797,0.62405 1.18613,0.74235 1.356768,0.1811 1.825088,0.55176 2.223888,1.76014 0.81483,2.46895 -1.446259,4.50498 -3.903487,3.51494 z m 7.73744,-2.44555 c 0.0782,-1.34607 0.19434,-2.78158 0.25809,-3.19002 0.0986,-0.63188 -0.002,-0.78371 -0.67424,-1.01807 -0.695089,-0.24231 -0.790139,-0.39966 -0.790139,-1.3079 0,-1.02158 0.0107,-1.03245 1.019519,-1.03245 0.56073,0 1.75136,0.0765 2.64583,0.16998 1.60782,0.16806 1.62627,0.17934 1.62226,0.99219 -0.005,1.08977 -0.25688,1.41953 -1.05428,1.38228 -0.65898,-0.0308 -0.66236,-0.0188 -0.90081,3.21024 l -0.23936,3.24115 h -1.01453 -1.01453 z"
       id="path302" /></g></svg>
