<?xml version="1.0" encoding="UTF-8" standalone="no"?>
<!-- Created with Inkscape (http://www.inkscape.org/) -->

<svg
   width="210mm"
   height="297mm"
   viewBox="0 0 210 297"
   version="1.1"
   id="svg5"
   xml:space="preserve"
   inkscape:version="1.2.1 (9c6d41e410, 2022-07-14)"
   sodipodi:docname="text.svg"
   xmlns:inkscape="http://www.inkscape.org/namespaces/inkscape"
   xmlns:sodipodi="http://sodipodi.sourceforge.net/DTD/sodipodi-0.dtd"
   xmlns="http://www.w3.org/2000/svg"
   xmlns:svg="http://www.w3.org/2000/svg"><sodipodi:namedview
     id="namedview7"
     pagecolor="#ffffff"
     bordercolor="#000000"
     borderopacity="0.25"
     inkscape:showpageshadow="2"
     inkscape:pageopacity="0.0"
     inkscape:pagecheckerboard="0"
     inkscape:deskcolor="#d1d1d1"
     inkscape:document-units="mm"
     showgrid="false"
     inkscape:zoom="0.36257716"
     inkscape:cx="143.41775"
     inkscape:cy="321.31092"
     inkscape:window-width="1920"
     inkscape:window-height="1001"
     inkscape:window-x="-9"
     inkscape:window-y="-9"
     inkscape:window-maximized="1"
     inkscape:current-layer="layer1" /><defs
     id="defs2" /><g
     inkscape:label="Layer 1"
     inkscape:groupmode="layer"
     id="layer1"><path
       style="display:inline;fill:#0c0c0c;stroke:none;stroke-width:0.205431"
       d="m 92.984439,150.98217 c -2.470316,0.38584 -4.897806,1.26897 -6.984622,2.65348 -12.521172,8.30721 -9.191602,28.29457 5.54661,31.79243 2.11616,0.50228 4.620531,0.63396 6.779194,0.29685 2.428149,-0.37922 4.694689,-1.24963 6.779229,-2.5422 1.87592,-1.16314 3.56664,-2.75276 4.84008,-4.55767 8.72917,-12.37191 -1.78452,-30.01314 -16.960491,-27.64289 m 1.848873,0.99562 c 1.923234,-0.22691 4.129755,0.24818 5.957418,0.83376 13.43887,4.30598 14.87482,22.96994 2.87605,29.83439 -1.73997,0.99531 -3.754419,1.67878 -5.752018,1.90228 -5.039304,0.56391 -10.07692,-0.88334 -13.760803,-4.49316 -6.902054,-6.76338 -6.311429,-18.77188 1.434992,-24.66438 2.758474,-2.0983 5.849175,-3.01231 9.244361,-3.41289 m -0.410865,1.46655 c -5.912384,0.78581 -11.105836,4.29885 -12.994249,10.18432 -3.075421,9.58496 4.674473,20.92798 15.253981,19.66274 5.977991,-0.7151 11.301711,-4.2752 13.199701,-10.21295 3.09647,-9.68776 -4.8141,-21.04899 -15.459433,-19.63411 m -0.616288,0.38249 c 15.227721,-1.87114 22.498701,18.65771 9.655191,26.91457 -1.78149,1.14527 -3.857565,1.86531 -5.957448,2.13832 -15.126539,1.96556 -22.893705,-19.29685 -9.449785,-27.08292 1.759897,-1.01926 3.730898,-1.72163 5.752042,-1.96997 m -0.345717,1.39694 c -1.053327,0.605 0.465197,5.62328 1.694796,4.89483 1.040689,-0.61661 -0.437337,-5.61705 -1.694796,-4.89483 m 4.268199,1.78643 c -2.977791,1.08225 1.025308,3.81442 1.69625,4.76975 0.427283,0.60853 0.544143,1.45053 1.059789,1.98867 0.40656,0.42427 0.99218,0.50013 1.52962,0.29183 1.07113,-0.41521 1.13525,-1.55272 0.75821,-2.4861 -0.61892,-1.53343 -2.948714,-5.32565 -5.043869,-4.56415 m -12.13969,9.28905 c -0.93226,1.05926 -2.273636,0.75543 -3.15896,1.61094 -1.32654,1.28192 2.778729,0.51711 3.15896,0.44337 l 0.688397,0.80872 1.776769,1.451 -0.4107,1.03229 c -0.156,0.39935 -0.611539,2.60793 0.517543,1.70774 1.04804,-0.83569 0.715102,-2.15866 2.152889,-2.74003 0.09528,0.39607 0.780837,2.39799 1.413911,1.36057 0.745261,-1.22108 -0.888897,-1.96453 0.84582,-3.00401 0.0404,0.49489 0.534651,3.98473 1.515207,3.1324 0.684149,-0.59451 -0.283349,-2.81645 -0.488062,-3.54326 1.076992,-0.0279 1.84446,0.79338 2.852812,0.80714 1.784573,0.0244 -0.800196,-1.66378 -1.209367,-1.83429 l 0.205426,-1.43801 c 0.365875,-0.0158 3.022494,-0.4222 1.750679,-1.16189 -1.147738,-0.66755 -2.144734,0.3967 -2.983256,-1.09784 0.285546,-0.0825 0.562074,-0.14655 0.829955,-0.28072 2.972145,-1.48855 -1.240303,-0.98876 -1.54405,-1.26635 -0.684593,-0.62562 0.505976,-2.6106 -0.529578,-2.78313 -1.099033,-0.1831 -0.749515,2.3144 -2.219322,1.90769 -0.921146,-0.25492 -0.572985,-2.50502 -1.619486,-2.31856 -1.065568,0.18987 0.351384,2.61417 -0.665926,3.25029 -1.075079,0.67221 -2.158433,-1.72643 -3.154521,-0.95758 -0.889599,0.68663 1.954334,2.06447 1.82335,2.91693 -0.294315,1.91531 -2.201671,-0.0531 -3.122659,0.29308 -1.26814,0.47652 1.207911,1.59775 1.574169,1.70351 m 19.581819,-5.12608 c -0.92035,0.51627 -2.05143,3.89963 -0.33795,3.02295 1.01254,-0.5181 2.04955,-3.98305 0.33795,-3.02295 m -13.830572,1.52043 c 1.119798,0.013 3.039232,2.93194 2.730511,3.99416 -0.236244,0.81289 -4.352875,2.8955 -5.194872,2.86468 -0.955475,-0.0349 -2.497316,-1.135 -2.294282,-2.22604 0.136034,-0.73096 0.934394,-1.26413 1.338616,-1.84887 0.944836,-1.36677 1.404917,-2.80718 3.420027,-2.78393 m -1.134616,1.15746 c -0.667543,0.41314 0.01586,1.31536 0.658449,0.95122 0.701834,-0.39771 -0.02777,-1.34154 -0.658449,-0.95122 m 15.108578,0.75181 c -2.01259,0.79861 -0.91685,3.09198 -0.78537,4.57241 0.14606,1.64487 -0.78866,5.74813 2.62129,4.36703 0.69144,-0.28021 1.06865,-0.98442 1.16583,-1.69645 0.14255,-1.04399 -0.36961,-2.05779 -0.47068,-3.08145 -0.16001,-1.62002 0.64016,-5.41996 -2.53107,-4.16154 m -5.535552,0.91079 c -1.567824,0.20597 0.656592,4.31714 1.819732,4.18217 1.60587,-0.18653 -0.6689,-4.33335 -1.819732,-4.18217 m 5.783862,-0.11744 c 0.56498,-0.25054 1.37025,-0.0971 1.60011,0.5226 0.30346,0.81798 -0.18095,1.80116 -0.17134,2.64016 0.0105,0.91622 0.47023,1.75951 0.53988,2.67039 0.044,0.57562 -0.0396,1.22251 -0.62432,1.49101 -2.30982,1.06002 -1.90062,-4.29164 -1.98753,-5.59941 -0.0409,-0.61711 -0.0102,-1.43486 0.6432,-1.72475 m -15.248621,0.90303 c 0.262432,0.78959 0.764711,0.78959 1.027143,0 h -1.027143 m 15.407261,-0.20543 0.20544,1.02715 h 0.41084 l 0.20544,-1.02715 h -0.82172 m -5.969589,3.27908 c -0.800165,-0.0417 -2.418538,0.64073 -3.002988,1.17855 -0.509673,0.46879 -0.426679,1.30119 0.356625,1.36693 0.784335,0.0659 2.618843,-0.66333 3.149862,-1.24305 0.46162,-0.50393 0.19371,-1.26607 -0.503499,-1.30243 m 6.290859,1.48095 c -0.40903,0.26706 -0.0661,1.04563 0.38459,0.75145 0.40901,-0.26705 0.066,-1.04563 -0.38459,-0.75145 m -10.939133,1.8314 c -1.028592,0.58528 -0.05342,4.83151 1.249629,3.87585 0.801176,-0.58753 0.05093,-4.61581 -1.249629,-3.87585 m 5.687483,0.13497 c -1.746725,0.65532 -3.267523,3.25155 -3.711866,4.98312 -0.33362,1.30037 0.58753,2.70346 2.059438,2.13565 1.277548,-0.49303 1.179158,-2.38834 1.944008,-3.36022 0.55118,-0.70032 1.55897,-1.17198 1.83532,-2.06314 0.3942,-1.27202 -1.05223,-2.09846 -2.1269,-1.69541 m -11.71041,1.83326 c -0.767736,0.12962 -2.013335,0.53987 -2.603392,1.05817 -0.629421,0.55302 -0.279142,1.40473 0.554002,1.36713 0.782752,-0.0353 2.444164,-0.60869 2.949565,-1.22662 0.584157,-0.71428 -0.174783,-1.32091 -0.900175,-1.19868 m 4.167396,0.69127 c -0.840683,0.46612 -2.086715,1.78724 -2.477201,2.66299 -0.338898,0.7603 0.199147,1.38891 0.984506,1.01852 0.91375,-0.43099 2.209649,-1.73588 2.621616,-2.6599 0.370471,-0.83118 -0.33428,-1.46205 -1.128921,-1.02161 m 11.442344,0.37285 c -0.90372,0.24406 -2.37764,1.42343 -2.9218,2.18085 -0.43925,0.61116 -0.1519,1.40021 0.67498,1.26627 0.91952,-0.14873 2.60651,-1.43924 3.06587,-2.24391 0.37405,-0.65573 -0.0242,-1.41767 -0.81905,-1.20321 m -16.275803,2.29774 c -0.845471,0.7036 0.655319,3.90174 1.774996,3.06522 0.881113,-0.6584 -0.629747,-4.01821 -1.774996,-3.06522 z"
       id="path302"
       sodipodi:nodetypes="cccsccccccccsccsccccscsccccccsccccscccccccccccccsccssssssscccsccscssccsccsccccccccsccscccccccccccccscccccccccccccccsccccccccccccccc" /><path
       style="display:inline;fill:#0c0c0c;stroke:none;stroke-width:0.205431"
       d="m 92.984439,150.98217 c -2.470316,0.38584 -4.897806,1.26897 -6.984622,2.65348 -12.521172,8.30721 -9.191602,28.29457 5.54661,31.79243 2.11616,0.50228 4.620531,0.63396 6.779194,0.29685 2.428149,-0.37922 4.694689,-1.24963 6.779229,-2.5422 1.87592,-1.16314 3.56664,-2.75276 4.84008,-4.55767 8.72917,-12.37191 -1.78452,-30.01314 -16.960491,-27.64289 m 1.848873,0.99562 c 1.923234,-0.22691 4.129755,0.24818 5.957418,0.83376 13.43887,4.30598 14.87482,22.96994 2.87605,29.83439 -1.73997,0.99531 -3.754419,1.67878 -5.752018,1.90228 -5.039304,0.56391 -10.07692,-0.88334 -13.760803,-4.49316 -6.902054,-6.76338 -6.311429,-18.77188 1.434992,-24.66438 2.758474,-2.0983 5.849175,-3.01231 9.244361,-3.41289 m -0.410865,1.46655 c -5.912384,0.78581 -11.105836,4.29885 -12.994249,10.18432 -3.075421,9.58496 4.674473,20.92798 15.253981,19.66274 5.977991,-0.7151 11.301711,-4.2752 13.199701,-10.21295 3.09647,-9.68776 -4.8141,-21.04899 -15.459433,-19.63411 m -0.616288,0.38249 c 15.227721,-1.87114 22.498701,18.65771 9.655191,26.91457 -1.78149,1.14527 -3.857565,1.86531 -5.957448,2.13832 -15.126539,1.96556 -22.893705,-19.29685 -9.449785,-27.08292 1.759897,-1.01926 3.730898,-1.72163 5.752042,-1.96997 m -0.345717,1.39694 c -1.053327,0.605 0.465197,5.62328 1.694796,4.89483 1.040689,-0.61661 -0.437337,-5.61705 -1.694796,-4.89483 m 4.268199,1.78643 c -2.977791,1.08225 1.025308,3.81442 1.69625,4.76975 0.427283,0.60853 0.544143,1.45053 1.059789,1.98867 0.40656,0.42427 0.99218,0.50013 1.52962,0.29183 1.07113,-0.41521 1.13525,-1.55272 0.75821,-2.4861 -0.61892,-1.53343 -2.948714,-5.32565 -5.043869,-4.56415 m -12.13969,9.28905 c -0.93226,1.05926 0.0069,0.88142 0.09064,1.31151 0.05332,0.27297 -0.05759,0.57112 0.259919,0.79287 1.772881,1.2381 -2.154753,2.5058 -1.16455,2.86198 1.289034,0.46368 2.107692,-1.96724 3.279155,-0.65233 0.246343,0.27651 -0.4107,1.03229 -0.4107,1.03229 -0.156,0.39935 -0.611539,2.60793 0.517543,1.70774 1.04804,-0.83569 0.715102,-2.15866 2.152889,-2.74003 0.09528,0.39607 0.780837,2.39799 1.413911,1.36057 0.745261,-1.22108 -0.888897,-1.96453 0.84582,-3.00401 0.0404,0.49489 0.534651,3.98473 1.515207,3.1324 0.684149,-0.59451 -0.283349,-2.81645 -0.488062,-3.54326 1.076992,-0.0279 1.84446,0.79338 2.852812,0.80714 1.784573,0.0244 -0.800196,-1.66378 -1.209367,-1.83429 l 0.205426,-1.43801 c 0.365875,-0.0158 3.022494,-0.4222 1.750679,-1.16189 -1.147738,-0.66755 -2.144734,0.3967 -2.983256,-1.09784 0.285546,-0.0825 0.562074,-0.14655 0.829955,-0.28072 2.972145,-1.48855 -1.240303,-0.98876 -1.54405,-1.26635 -0.684593,-0.62562 0.505976,-2.6106 -0.529578,-2.78313 -1.099033,-0.1831 -0.749515,2.3144 -2.219322,1.90769 -0.921146,-0.25492 -0.572985,-2.50502 -1.619486,-2.31856 -1.065568,0.18987 0.351384,2.61417 -0.665926,3.25029 -1.075079,0.67221 -2.158433,-1.72643 -3.154521,-0.95758 -0.889599,0.68663 1.954334,2.06447 1.82335,2.91693 -0.294315,1.91531 -2.201671,-0.0531 -3.122659,0.29308 -1.26814,0.47652 1.157834,1.14704 1.524091,1.25279 m 19.631899,-4.67536 c -0.92035,0.51627 -2.05143,3.89963 -0.33795,3.02295 1.01254,-0.5181 2.04955,-3.98305 0.33795,-3.02295 m -13.830574,1.52043 c 1.119798,0.013 3.039232,2.93194 2.730511,3.99416 -0.236244,0.81289 -4.352875,2.8955 -5.194872,2.86468 -0.955475,-0.0349 -2.497316,-1.135 -2.294282,-2.22604 0.136034,-0.73096 0.934394,-1.26413 1.338616,-1.84887 0.944836,-1.36677 1.404917,-2.80718 3.420027,-2.78393 m -1.134616,1.15746 c -0.667543,0.41314 0.01586,1.31536 0.658449,0.95122 0.701834,-0.39771 -0.02777,-1.34154 -0.658449,-0.95122 m 15.10858,0.75181 c -2.01259,0.79861 -0.91685,3.09198 -0.78537,4.57241 0.14606,1.64487 -0.78866,5.74813 2.62129,4.36703 0.69144,-0.28021 1.06865,-0.98442 1.16583,-1.69645 0.14255,-1.04399 -0.36961,-2.05779 -0.47068,-3.08145 -0.16001,-1.62002 0.64016,-5.41996 -2.53107,-4.16154 m -5.535554,0.91079 c -1.567824,0.20597 0.656594,4.31714 1.819734,4.18217 1.60587,-0.18653 -0.6689,-4.33335 -1.819734,-4.18217 m 5.783864,-0.11744 c 0.56498,-0.25054 1.37025,-0.0971 1.60011,0.5226 0.30346,0.81798 -0.18095,1.80116 -0.17134,2.64016 0.0105,0.91622 0.47023,1.75951 0.53988,2.67039 0.044,0.57562 -0.0396,1.22251 -0.62432,1.49101 -2.30982,1.06002 -1.90062,-4.29164 -1.98753,-5.59941 -0.0409,-0.61711 -0.0102,-1.43486 0.6432,-1.72475 m -15.204805,0.62133 c -0.313476,0.80211 1.12123,0.55982 1.008372,0.14076 -0.08806,-0.32696 -0.588956,-0.33482 -0.588956,-0.33482 m 14.944029,0.27033 0.20544,1.02715 h 0.41084 l 0.20544,-1.02715 h -0.82172 m -5.969591,3.27912 c -0.800165,-0.0417 -2.418538,0.64073 -3.002988,1.17855 -0.509673,0.46879 -0.426679,1.30119 0.356625,1.36693 0.784335,0.0659 2.618843,-0.66334 3.149864,-1.24306 0.46162,-0.50392 0.19371,-1.26606 -0.503501,-1.30242 m 6.290861,1.48094 c -0.40903,0.26706 -0.0661,1.04564 0.38459,0.75146 0.40901,-0.26705 0.066,-1.04564 -0.38459,-0.75146 m -10.939135,1.83141 c -1.028592,0.58527 -0.05342,4.83151 1.249629,3.87584 0.801176,-0.58752 0.05093,-4.6158 -1.249629,-3.87584 m 5.687485,0.13497 c -1.746727,0.65532 -3.267525,3.25155 -3.711868,4.98311 -0.33362,1.30038 0.58753,2.70347 2.059438,2.13566 1.27755,-0.49303 1.17916,-2.38833 1.94401,-3.36022 0.55118,-0.70031 1.55897,-1.17198 1.83532,-2.06313 0.3942,-1.27203 -1.05223,-2.09848 -2.1269,-1.69542 m -11.710412,1.83325 c -0.767736,0.12963 -2.013335,0.53988 -2.603392,1.05817 -0.629421,0.55303 -0.279142,1.40474 0.554002,1.36714 0.782752,-0.0353 2.444164,-0.60869 2.949565,-1.22661 0.584157,-0.71429 -0.174783,-1.32092 -0.900175,-1.1987 m 4.167396,0.69128 c -0.840683,0.46612 -2.086715,1.78724 -2.477201,2.66299 -0.338898,0.76029 0.199147,1.38892 0.984506,1.01852 0.91375,-0.43099 2.209649,-1.73588 2.621616,-2.65991 0.370471,-0.83117 -0.33428,-1.46204 -1.128921,-1.0216 m 11.442346,0.37285 c -0.90372,0.24406 -2.37764,1.42343 -2.9218,2.18085 -0.43925,0.61116 -0.1519,1.40021 0.67498,1.26627 0.91952,-0.14873 2.60651,-1.43924 3.06587,-2.24391 0.37405,-0.65574 -0.0242,-1.41767 -0.81905,-1.20321 m -16.275805,2.29774 c -0.845471,0.7036 0.655319,3.90174 1.774996,3.06523 0.881113,-0.6584 -0.629747,-4.01821 -1.774996,-3.06523 z"
       id="path351"
       sodipodi:nodetypes="cccsccccccccsccsccccscsccccccsccccasssccccccccccsccssssssscccsccscssccsccsccccccccsccscccscccccccccscccccccccccccccsccccccccccccccc" /><text
       xml:space="preserve"
       style="font-style:normal;font-variant:normal;font-weight:normal;font-stretch:normal;font-size:50.8px;line-height:0;font-family:'permanent marker';-inkscape-font-specification:'permanent marker';fill:#000000;stroke-width:0.264583;letter-spacing:10.58333333px"
       x="1.5479879"
       y="184.72687"
       id="text476"><tspan
         sodipodi:role="line"
         id="tspan474"
         style="font-style:normal;font-variant:normal;font-weight:normal;font-stretch:normal;font-size:50.8px;font-family:'Ink Free';-inkscape-font-specification:'Ink Free';stroke-width:0.264583"
         x="1.5479879"
         y="184.72687"
         dx="0">BI DIVERSITY</tspan></text></g></svg>
